<?xml version="1.0" encoding="UTF-8" standalone="no"?>
<!DOCTYPE svg PUBLIC "-//W3C//DTD SVG 1.1//EN" "http://www.w3.org/Graphics/SVG/1.1/DTD/svg11.dtd">
<svg width="100%" height="100%" viewBox="0 0 213 24" version="1.1" xmlns="http://www.w3.org/2000/svg" xmlns:xlink="http://www.w3.org/1999/xlink" xml:space="preserve" xmlns:serif="http://www.serif.com/" style="fill-rule:evenodd;clip-rule:evenodd;stroke-linejoin:round;stroke-miterlimit:2;">
    <g transform="matrix(1,0,0,1,-70,-113.249)">
        <g transform="matrix(1,0,0,1,70,113.249)">
            <g transform="matrix(1,0,0,1,-1.5,-4.77)">
                <path d="M18.82,5.79L23.33,5.79C23.03,5.857 22.737,6.097 22.45,6.51C22.163,6.93 22.02,7.66 22.02,8.7L22.02,28.7L5.63,9.6L5.63,24.93C5.63,25.95 5.813,26.67 6.18,27.09C6.54,27.503 6.89,27.743 7.23,27.81L2.72,27.81C3.02,27.743 3.323,27.503 3.63,27.09C3.943,26.67 4.1,25.94 4.1,24.9L4.1,8.9C4.1,8.173 3.853,7.51 3.36,6.91C2.867,6.317 2.247,5.943 1.5,5.79L5.47,5.79L20.48,23.3L20.48,8.7C20.48,7.06 19.927,6.09 18.82,5.79ZM30.53,17.06C30.53,14.793 31.013,12.777 31.98,11.01C32.953,9.237 34.32,7.86 36.08,6.88C37.84,5.9 39.873,5.41 42.18,5.41C44.1,5.41 45.897,5.83 47.57,6.67C49.243,7.517 50.587,8.78 51.6,10.46C52.613,12.147 53.12,14.173 53.12,16.54C53.12,18.807 52.633,20.823 51.66,22.59C50.693,24.363 49.33,25.74 47.57,26.72C45.81,27.7 43.777,28.19 41.47,28.19C39.55,28.19 37.753,27.77 36.08,26.93C34.407,26.083 33.063,24.82 32.05,23.14C31.037,21.453 30.53,19.427 30.53,17.06ZM50.56,17.02C50.56,15.08 50.16,13.327 49.36,11.76C48.56,10.193 47.46,8.967 46.06,8.08C44.667,7.193 43.093,6.75 41.34,6.75C39.74,6.75 38.317,7.157 37.07,7.97C35.823,8.777 34.847,9.923 34.14,11.41C33.44,12.89 33.09,14.613 33.09,16.58C33.09,18.52 33.49,20.273 34.29,21.84C35.09,23.407 36.187,24.633 37.58,25.52C38.98,26.407 40.553,26.85 42.3,26.85C43.9,26.85 45.327,26.443 46.58,25.63C47.827,24.823 48.8,23.677 49.5,22.19C50.207,20.71 50.56,18.987 50.56,17.02ZM66.69,16.74C67.67,16.74 68.523,16.51 69.25,16.05C69.977,15.59 70.527,14.993 70.9,14.26C71.273,13.52 71.46,12.747 71.46,11.94C71.46,11.107 71.283,10.32 70.93,9.58C70.577,8.847 70.037,8.247 69.31,7.78C68.583,7.307 67.7,7.07 66.66,7.07L63.94,7.07L63.94,24.86C63.94,25.713 64.047,26.36 64.26,26.8C64.473,27.24 64.707,27.527 64.96,27.66C65.213,27.8 65.34,27.85 65.34,27.81L60.26,27.81C60.26,27.85 60.387,27.797 60.64,27.65C60.893,27.497 61.123,27.207 61.33,26.78C61.53,26.353 61.63,25.713 61.63,24.86L61.63,8.86C61.63,7.987 61.53,7.32 61.33,6.86C61.123,6.407 60.893,6.1 60.64,5.94C60.387,5.78 60.26,5.73 60.26,5.79L66.59,5.79C68.257,5.79 69.627,6.063 70.7,6.61C71.78,7.15 72.56,7.853 73.04,8.72C73.52,9.587 73.76,10.53 73.76,11.55C73.76,12.403 73.557,13.24 73.15,14.06C72.743,14.887 72.163,15.603 71.41,16.21C70.65,16.817 69.77,17.237 68.77,17.47L68.26,17.57L73.89,24.74C74.637,25.567 75.253,26.207 75.74,26.66C76.233,27.107 76.593,27.403 76.82,27.55C77.04,27.703 77.173,27.79 77.22,27.81L73.47,27.81L64.77,16.74L66.69,16.74ZM84.48,7.07C83.54,7.07 82.76,7.253 82.14,7.62C81.527,7.98 81.08,8.437 80.8,8.99L81.25,5.79L96.42,5.79L96.86,8.99C96.587,8.437 96.14,7.98 95.52,7.62C94.9,7.253 94.12,7.07 93.18,7.07L89.98,7.07L89.98,24.83C89.98,25.683 90.087,26.333 90.3,26.78C90.513,27.233 90.75,27.533 91.01,27.68C91.263,27.827 91.39,27.87 91.39,27.81L86.3,27.81C86.3,27.87 86.43,27.827 86.69,27.68C86.943,27.533 87.173,27.24 87.38,26.8C87.58,26.36 87.68,25.703 87.68,24.83L87.68,7.07L84.48,7.07ZM117.31,27.81C117.31,27.87 117.44,27.82 117.7,27.66C117.953,27.5 118.187,27.203 118.4,26.77C118.613,26.33 118.72,25.683 118.72,24.83L118.72,17.57L106.69,17.57L106.69,24.83C106.69,25.683 106.797,26.33 107.01,26.77C107.223,27.203 107.457,27.497 107.71,27.65C107.97,27.797 108.1,27.85 108.1,27.81L103.01,27.81C103.01,27.87 103.137,27.82 103.39,27.66C103.65,27.5 103.88,27.203 104.08,26.77C104.28,26.33 104.38,25.683 104.38,24.83L104.38,8.77C104.38,7.917 104.28,7.27 104.08,6.83C103.88,6.397 103.65,6.103 103.39,5.95C103.137,5.803 103.01,5.75 103.01,5.79L108.1,5.79C108.1,5.75 107.97,5.803 107.71,5.95C107.457,6.103 107.223,6.397 107.01,6.83C106.797,7.27 106.69,7.917 106.69,8.77L106.69,16.16L118.72,16.16L118.72,8.77C118.72,7.917 118.613,7.27 118.4,6.83C118.187,6.397 117.953,6.103 117.7,5.95C117.44,5.803 117.31,5.75 117.31,5.79L122.4,5.79C122.4,5.73 122.273,5.78 122.02,5.94C121.76,6.1 121.53,6.397 121.33,6.83C121.123,7.27 121.02,7.917 121.02,8.77L121.02,24.83C121.02,25.683 121.127,26.33 121.34,26.77C121.553,27.203 121.79,27.497 122.05,27.65C122.303,27.797 122.43,27.85 122.43,27.81L117.31,27.81ZM140.9,28.16C138.873,28.16 136.993,27.733 135.26,26.88C133.533,26.027 132.147,24.747 131.1,23.04C130.06,21.333 129.54,19.253 129.54,16.8C129.54,14.627 130.033,12.673 131.02,10.94C132.013,9.213 133.413,7.86 135.22,6.88C137.02,5.9 139.093,5.41 141.44,5.41C142.933,5.41 144.283,5.58 145.49,5.92C146.697,6.26 147.65,6.633 148.35,7.04L148.35,10.59C147.69,9.437 146.703,8.51 145.39,7.81C144.077,7.103 142.74,6.75 141.38,6.75C139.48,6.75 137.83,7.15 136.43,7.95C135.037,8.75 133.967,9.887 133.22,11.36C132.473,12.833 132.1,14.56 132.1,16.54C132.1,18.7 132.53,20.547 133.39,22.08C134.257,23.613 135.403,24.767 136.83,25.54C138.263,26.307 139.82,26.69 141.5,26.69C142.273,26.69 143.07,26.6 143.89,26.42C144.71,26.233 145.473,25.97 146.18,25.63L146.18,20.35C146.18,19.69 146.073,19.173 145.86,18.8C145.647,18.427 145.41,18.16 145.15,18C144.897,17.84 144.77,17.78 144.77,17.82L149.89,17.82C149.89,17.78 149.76,17.823 149.5,17.95C149.247,18.077 149.013,18.317 148.8,18.67C148.587,19.023 148.48,19.52 148.48,20.16L148.48,25.98C147.347,26.687 146.127,27.227 144.82,27.6C143.507,27.973 142.2,28.16 140.9,28.16ZM169.15,19.26L161.18,19.26L159.14,24.35C158.82,25.143 158.66,25.793 158.66,26.3C158.66,27.007 158.98,27.51 159.62,27.81L155.04,27.81C155.253,27.81 155.563,27.597 155.97,27.17C156.377,26.743 156.847,25.9 157.38,24.64L165.73,4.77L174.02,24.74C174.487,25.887 174.94,26.673 175.38,27.1C175.813,27.527 176.16,27.763 176.42,27.81L171.1,27.81C171.633,27.55 171.9,27.153 171.9,26.62C171.9,26.173 171.73,25.533 171.39,24.7L169.15,19.26ZM161.73,17.95L168.64,17.95L165.15,9.41L161.73,17.95ZM182.53,7.07C181.59,7.07 180.81,7.253 180.19,7.62C179.57,7.98 179.123,8.437 178.85,8.99L179.3,5.79L194.46,5.79L194.91,8.99C194.637,8.437 194.19,7.98 193.57,7.62C192.95,7.253 192.17,7.07 191.23,7.07L188.03,7.07L188.03,24.83C188.03,25.683 188.137,26.333 188.35,26.78C188.563,27.233 188.8,27.533 189.06,27.68C189.313,27.827 189.44,27.87 189.44,27.81L184.35,27.81C184.35,27.87 184.48,27.827 184.74,27.68C184.993,27.533 185.22,27.24 185.42,26.8C185.627,26.36 185.73,25.703 185.73,24.83L185.73,7.07L182.53,7.07ZM213.12,27.81L201.06,27.81C201.06,27.87 201.187,27.82 201.44,27.66C201.693,27.5 201.923,27.18 202.13,26.7C202.33,26.22 202.43,25.523 202.43,24.61L202.43,8.9C202.43,8.02 202.33,7.353 202.13,6.9C201.923,6.44 201.693,6.123 201.44,5.95C201.187,5.783 201.06,5.73 201.06,5.79L212.64,5.79L212.64,8.99C212.253,7.71 211.1,7.07 209.18,7.07L204.74,7.07L204.74,16.16L210.24,16.16C210.667,16.16 211.03,16.09 211.33,15.95C211.63,15.81 211.853,15.667 212,15.52C212.147,15.373 212.233,15.277 212.26,15.23L212.26,18.34C212.233,18.293 212.147,18.197 212,18.05C211.853,17.897 211.633,17.757 211.34,17.63C211.053,17.503 210.697,17.44 210.27,17.44L204.74,17.44L204.74,26.53L209.73,26.53C210.69,26.53 211.517,26.333 212.21,25.94C212.903,25.54 213.4,25.033 213.7,24.42L213.12,27.81Z" style="fill:rgb(245,245,245);fill-rule:nonzero;"/>
            </g>
        </g>
    </g>
</svg>
